<mxfile host="app.diagrams.net" modified="2021-10-26T23:10:18.542Z" agent="5.0 (Windows NT 10.0; Win64; x64) AppleWebKit/537.36 (KHTML, like Gecko) Chrome/95.0.4638.54 Safari/537.36" etag="dj3Bk9IQmcp0EJx6Qp6O" version="15.5.9" type="github">
  <diagram id="pW_3IDAzkVvG6ZnX7cAn" name="Page-1">
    <mxGraphModel dx="1422" dy="794" grid="1" gridSize="10" guides="1" tooltips="1" connect="1" arrows="1" fold="1" page="1" pageScale="1" pageWidth="827" pageHeight="1169" background="#09555B" math="0" shadow="0">
      <root>
        <mxCell id="0" />
        <mxCell id="1" parent="0" />
        <mxCell id="kLnh-OQWywF7f1NIjgKC-1" value="Inicio" style="ellipse;whiteSpace=wrap;html=1;fillColor=#B1DDF0;strokeColor=#BAC8D3;fontColor=#182E3E;" vertex="1" parent="1">
          <mxGeometry x="40" y="80" width="120" height="80" as="geometry" />
        </mxCell>
        <mxCell id="kLnh-OQWywF7f1NIjgKC-3" value="" style="endArrow=classic;html=1;rounded=0;labelBackgroundColor=#09555B;strokeColor=#EEEEEE;fontColor=#FFFFFF;" edge="1" parent="1">
          <mxGeometry width="50" height="50" relative="1" as="geometry">
            <mxPoint x="99.5" y="160" as="sourcePoint" />
            <mxPoint x="100" y="210" as="targetPoint" />
          </mxGeometry>
        </mxCell>
        <mxCell id="kLnh-OQWywF7f1NIjgKC-4" value="Data do evento tem que ser depois a data atual" style="rounded=0;whiteSpace=wrap;html=1;fillColor=#B1DDF0;strokeColor=#BAC8D3;fontColor=#182E3E;" vertex="1" parent="1">
          <mxGeometry x="20" y="220" width="160" height="90" as="geometry" />
        </mxCell>
        <mxCell id="kLnh-OQWywF7f1NIjgKC-5" value="" style="endArrow=classic;html=1;rounded=0;exitX=0.5;exitY=1;exitDx=0;exitDy=0;labelBackgroundColor=#09555B;strokeColor=#EEEEEE;fontColor=#FFFFFF;" edge="1" parent="1" source="kLnh-OQWywF7f1NIjgKC-4">
          <mxGeometry width="50" height="50" relative="1" as="geometry">
            <mxPoint x="80" y="340" as="sourcePoint" />
            <mxPoint x="100" y="370" as="targetPoint" />
          </mxGeometry>
        </mxCell>
        <mxCell id="kLnh-OQWywF7f1NIjgKC-6" value="Data do evento&lt;br&gt;&amp;gt; data atual?" style="rhombus;whiteSpace=wrap;html=1;fillColor=#B1DDF0;strokeColor=#BAC8D3;fontColor=#182E3E;" vertex="1" parent="1">
          <mxGeometry x="30" y="380" width="120" height="100" as="geometry" />
        </mxCell>
        <mxCell id="kLnh-OQWywF7f1NIjgKC-7" value="" style="endArrow=classic;html=1;rounded=0;labelBackgroundColor=#09555B;strokeColor=#EEEEEE;fontColor=#FFFFFF;" edge="1" parent="1">
          <mxGeometry width="50" height="50" relative="1" as="geometry">
            <mxPoint x="140" y="410" as="sourcePoint" />
            <mxPoint x="180" y="370" as="targetPoint" />
          </mxGeometry>
        </mxCell>
        <mxCell id="kLnh-OQWywF7f1NIjgKC-8" value="" style="endArrow=classic;html=1;rounded=0;labelBackgroundColor=#09555B;strokeColor=#EEEEEE;fontColor=#FFFFFF;" edge="1" parent="1">
          <mxGeometry width="50" height="50" relative="1" as="geometry">
            <mxPoint x="140" y="450" as="sourcePoint" />
            <mxPoint x="180" y="490" as="targetPoint" />
          </mxGeometry>
        </mxCell>
        <mxCell id="kLnh-OQWywF7f1NIjgKC-10" value="Não esta no período do evento!" style="whiteSpace=wrap;html=1;aspect=fixed;fillColor=#B1DDF0;strokeColor=#BAC8D3;fontColor=#182E3E;" vertex="1" parent="1">
          <mxGeometry x="200" y="450" width="100" height="100" as="geometry" />
        </mxCell>
        <mxCell id="kLnh-OQWywF7f1NIjgKC-11" value="" style="endArrow=classic;html=1;rounded=0;labelBackgroundColor=#09555B;strokeColor=#EEEEEE;fontColor=#FFFFFF;" edge="1" parent="1" target="kLnh-OQWywF7f1NIjgKC-12">
          <mxGeometry width="50" height="50" relative="1" as="geometry">
            <mxPoint x="300" y="310" as="sourcePoint" />
            <mxPoint x="360" y="310" as="targetPoint" />
          </mxGeometry>
        </mxCell>
        <mxCell id="kLnh-OQWywF7f1NIjgKC-12" value="Participantes&lt;br&gt;&amp;lt;100" style="rhombus;whiteSpace=wrap;html=1;fillColor=#B1DDF0;strokeColor=#BAC8D3;fontColor=#182E3E;" vertex="1" parent="1">
          <mxGeometry x="340" y="260" width="100" height="100" as="geometry" />
        </mxCell>
        <mxCell id="kLnh-OQWywF7f1NIjgKC-50" value="" style="endArrow=classic;html=1;rounded=0;labelBackgroundColor=#09555B;strokeColor=#EEEEEE;fontColor=#FFFFFF;" edge="1" parent="1" target="kLnh-OQWywF7f1NIjgKC-51">
          <mxGeometry width="50" height="50" relative="1" as="geometry">
            <mxPoint x="389.5" y="360" as="sourcePoint" />
            <mxPoint x="390" y="420" as="targetPoint" />
          </mxGeometry>
        </mxCell>
        <mxCell id="kLnh-OQWywF7f1NIjgKC-51" value="Limite de participantes atingido!" style="shape=dataStorage;whiteSpace=wrap;html=1;fixedSize=1;fillColor=#B1DDF0;strokeColor=#BAC8D3;fontColor=#182E3E;" vertex="1" parent="1">
          <mxGeometry x="340" y="400" width="110" height="100" as="geometry" />
        </mxCell>
        <mxCell id="kLnh-OQWywF7f1NIjgKC-52" value="" style="endArrow=classic;html=1;rounded=0;labelBackgroundColor=#09555B;strokeColor=#EEEEEE;fontColor=#FFFFFF;" edge="1" parent="1" target="kLnh-OQWywF7f1NIjgKC-53">
          <mxGeometry width="50" height="50" relative="1" as="geometry">
            <mxPoint x="440" y="310" as="sourcePoint" />
            <mxPoint x="470" y="310" as="targetPoint" />
          </mxGeometry>
        </mxCell>
        <mxCell id="kLnh-OQWywF7f1NIjgKC-53" value="Informe sua idade&lt;br&gt;" style="shape=step;perimeter=stepPerimeter;whiteSpace=wrap;html=1;fixedSize=1;fillColor=#B1DDF0;strokeColor=#BAC8D3;fontColor=#182E3E;" vertex="1" parent="1">
          <mxGeometry x="450" y="270" width="140" height="80" as="geometry" />
        </mxCell>
        <mxCell id="kLnh-OQWywF7f1NIjgKC-200" value="idade deve ser &amp;gt; 18" style="whiteSpace=wrap;html=1;aspect=fixed;fillColor=#B1DDF0;strokeColor=#BAC8D3;fontColor=#182E3E;" vertex="1" parent="1">
          <mxGeometry x="620" y="270" width="90" height="90" as="geometry" />
        </mxCell>
        <mxCell id="kLnh-OQWywF7f1NIjgKC-201" value="" style="endArrow=classic;html=1;rounded=0;labelBackgroundColor=#09555B;strokeColor=#EEEEEE;fontColor=#FFFFFF;" edge="1" parent="1">
          <mxGeometry width="50" height="50" relative="1" as="geometry">
            <mxPoint x="590" y="310" as="sourcePoint" />
            <mxPoint x="610" y="310" as="targetPoint" />
          </mxGeometry>
        </mxCell>
        <mxCell id="kLnh-OQWywF7f1NIjgKC-202" value="Idade" style="shape=trapezoid;perimeter=trapezoidPerimeter;whiteSpace=wrap;html=1;fixedSize=1;fillColor=#B1DDF0;strokeColor=#BAC8D3;fontColor=#182E3E;" vertex="1" parent="1">
          <mxGeometry x="760" y="285" width="120" height="60" as="geometry" />
        </mxCell>
        <mxCell id="kLnh-OQWywF7f1NIjgKC-203" value="" style="endArrow=classic;html=1;rounded=0;labelBackgroundColor=#09555B;strokeColor=#EEEEEE;fontColor=#FFFFFF;" edge="1" parent="1">
          <mxGeometry width="50" height="50" relative="1" as="geometry">
            <mxPoint x="710" y="310" as="sourcePoint" />
            <mxPoint x="750" y="310" as="targetPoint" />
          </mxGeometry>
        </mxCell>
        <mxCell id="kLnh-OQWywF7f1NIjgKC-204" value="" style="endArrow=classic;html=1;rounded=0;exitX=0.917;exitY=0.583;exitDx=0;exitDy=0;exitPerimeter=0;labelBackgroundColor=#09555B;strokeColor=#EEEEEE;fontColor=#FFFFFF;" edge="1" parent="1" source="kLnh-OQWywF7f1NIjgKC-202">
          <mxGeometry width="50" height="50" relative="1" as="geometry">
            <mxPoint x="880" y="320" as="sourcePoint" />
            <mxPoint x="920" y="320" as="targetPoint" />
          </mxGeometry>
        </mxCell>
        <mxCell id="kLnh-OQWywF7f1NIjgKC-206" value="Idade &amp;gt; 18" style="rhombus;whiteSpace=wrap;html=1;fillColor=#B1DDF0;strokeColor=#BAC8D3;fontColor=#182E3E;" vertex="1" parent="1">
          <mxGeometry x="920" y="270" width="110" height="100" as="geometry" />
        </mxCell>
        <mxCell id="kLnh-OQWywF7f1NIjgKC-207" value="" style="endArrow=classic;html=1;rounded=0;labelBackgroundColor=#09555B;strokeColor=#EEEEEE;fontColor=#FFFFFF;" edge="1" parent="1">
          <mxGeometry width="50" height="50" relative="1" as="geometry">
            <mxPoint x="974.5" y="370" as="sourcePoint" />
            <mxPoint x="975" y="410" as="targetPoint" />
          </mxGeometry>
        </mxCell>
        <mxCell id="kLnh-OQWywF7f1NIjgKC-208" value="&lt;font style=&quot;font-size: 13px&quot;&gt;Somentes maiores&amp;nbsp;&lt;/font&gt;" style="shape=step;perimeter=stepPerimeter;whiteSpace=wrap;html=1;fixedSize=1;fillColor=#B1DDF0;strokeColor=#BAC8D3;fontColor=#182E3E;" vertex="1" parent="1">
          <mxGeometry x="900" y="410" width="160" height="80" as="geometry" />
        </mxCell>
        <mxCell id="kLnh-OQWywF7f1NIjgKC-209" value="" style="endArrow=classic;html=1;rounded=0;labelBackgroundColor=#09555B;strokeColor=#EEEEEE;fontColor=#FFFFFF;" edge="1" parent="1">
          <mxGeometry width="50" height="50" relative="1" as="geometry">
            <mxPoint x="1030" y="320" as="sourcePoint" />
            <mxPoint x="1060" y="321.7647058823529" as="targetPoint" />
          </mxGeometry>
        </mxCell>
        <mxCell id="kLnh-OQWywF7f1NIjgKC-211" value="" style="endArrow=classic;html=1;rounded=0;labelBackgroundColor=#09555B;strokeColor=#EEEEEE;fontColor=#FFFFFF;" edge="1" parent="1" target="kLnh-OQWywF7f1NIjgKC-212">
          <mxGeometry width="50" height="50" relative="1" as="geometry">
            <mxPoint x="1170" y="320" as="sourcePoint" />
            <mxPoint x="1210" y="320" as="targetPoint" />
          </mxGeometry>
        </mxCell>
        <mxCell id="kLnh-OQWywF7f1NIjgKC-215" value="" style="edgeStyle=orthogonalEdgeStyle;rounded=0;orthogonalLoop=1;jettySize=auto;html=1;labelBackgroundColor=#09555B;strokeColor=#EEEEEE;fontColor=#FFFFFF;" edge="1" parent="1" source="kLnh-OQWywF7f1NIjgKC-212" target="kLnh-OQWywF7f1NIjgKC-214">
          <mxGeometry relative="1" as="geometry" />
        </mxCell>
        <mxCell id="kLnh-OQWywF7f1NIjgKC-212" value="Lista participantes se cadastrado for efetuado" style="rounded=0;whiteSpace=wrap;html=1;fillColor=#B1DDF0;strokeColor=#BAC8D3;fontColor=#182E3E;" vertex="1" parent="1">
          <mxGeometry x="1200" y="280" width="140" height="80" as="geometry" />
        </mxCell>
        <mxCell id="kLnh-OQWywF7f1NIjgKC-214" value="Lista de participantes&amp;nbsp; e palestrantes" style="shape=hexagon;perimeter=hexagonPerimeter2;whiteSpace=wrap;html=1;fixedSize=1;fillColor=#B1DDF0;strokeColor=#BAC8D3;fontColor=#182E3E;" vertex="1" parent="1">
          <mxGeometry x="1180" y="410" width="160" height="80" as="geometry" />
        </mxCell>
        <mxCell id="kLnh-OQWywF7f1NIjgKC-216" value="" style="endArrow=classic;html=1;rounded=0;labelBackgroundColor=#09555B;strokeColor=#EEEEEE;fontColor=#FFFFFF;" edge="1" parent="1" target="kLnh-OQWywF7f1NIjgKC-217">
          <mxGeometry width="50" height="50" relative="1" as="geometry">
            <mxPoint x="460" y="440" as="sourcePoint" />
            <mxPoint x="520" y="640" as="targetPoint" />
            <Array as="points">
              <mxPoint x="520" y="440" />
            </Array>
          </mxGeometry>
        </mxCell>
        <mxCell id="kLnh-OQWywF7f1NIjgKC-217" value="FIM" style="shape=parallelogram;perimeter=parallelogramPerimeter;whiteSpace=wrap;html=1;fixedSize=1;fillColor=#B1DDF0;strokeColor=#BAC8D3;fontColor=#182E3E;" vertex="1" parent="1">
          <mxGeometry x="460" y="670" width="120" height="60" as="geometry" />
        </mxCell>
        <mxCell id="kLnh-OQWywF7f1NIjgKC-219" value="" style="endArrow=classic;html=1;rounded=0;labelBackgroundColor=#09555B;strokeColor=#EEEEEE;fontColor=#FFFFFF;" edge="1" parent="1">
          <mxGeometry width="50" height="50" relative="1" as="geometry">
            <mxPoint x="910" y="450" as="sourcePoint" />
            <mxPoint x="590" y="680" as="targetPoint" />
            <Array as="points">
              <mxPoint x="830" y="450" />
              <mxPoint x="830" y="680" />
            </Array>
          </mxGeometry>
        </mxCell>
        <mxCell id="kLnh-OQWywF7f1NIjgKC-220" value="" style="endArrow=classic;html=1;rounded=0;labelBackgroundColor=#09555B;strokeColor=#EEEEEE;fontColor=#FFFFFF;" edge="1" parent="1">
          <mxGeometry width="50" height="50" relative="1" as="geometry">
            <mxPoint x="1270" y="500" as="sourcePoint" />
            <mxPoint x="590" y="700" as="targetPoint" />
            <Array as="points">
              <mxPoint x="1270" y="700" />
            </Array>
          </mxGeometry>
        </mxCell>
        <mxCell id="kLnh-OQWywF7f1NIjgKC-222" value="Participantes devem ser &amp;lt; 100" style="whiteSpace=wrap;html=1;aspect=fixed;fillColor=#B1DDF0;strokeColor=#BAC8D3;fontColor=#182E3E;" vertex="1" parent="1">
          <mxGeometry x="200" y="260" width="100" height="100" as="geometry" />
        </mxCell>
        <mxCell id="kLnh-OQWywF7f1NIjgKC-223" value="" style="endArrow=classic;html=1;rounded=0;labelBackgroundColor=#09555B;strokeColor=#EEEEEE;fontColor=#FFFFFF;" edge="1" parent="1">
          <mxGeometry width="50" height="50" relative="1" as="geometry">
            <mxPoint x="250" y="570" as="sourcePoint" />
            <mxPoint x="450" y="690" as="targetPoint" />
            <Array as="points">
              <mxPoint x="250" y="690" />
            </Array>
          </mxGeometry>
        </mxCell>
        <mxCell id="kLnh-OQWywF7f1NIjgKC-224" value="Cadastro efetuado!" style="whiteSpace=wrap;html=1;aspect=fixed;fillColor=#B1DDF0;strokeColor=#BAC8D3;fontColor=#182E3E;" vertex="1" parent="1">
          <mxGeometry x="1060" y="270" width="110" height="110" as="geometry" />
        </mxCell>
      </root>
    </mxGraphModel>
  </diagram>
</mxfile>
